<svg width="418" height="27" viewBox="0 0 418 27" fill="none" xmlns="http://www.w3.org/2000/svg">
<path d="M25.308 24.668C25.404 24.908 25.452 25.088 25.452 25.208C25.452 25.424 25.368 25.616 25.2 25.784C25.056 25.928 24.876 26 24.66 26H20.124C19.716 26 19.392 25.916 19.152 25.748C18.936 25.556 18.792 25.34 18.72 25.1L17.712 22.112H8.136L7.128 25.1C7.056 25.34 6.9 25.556 6.66 25.748C6.444 25.916 6.132 26 5.724 26H1.188C0.972 26 0.78 25.928 0.612 25.784C0.468 25.616 0.396 25.424 0.396 25.208C0.396 25.088 0.444 24.908 0.54 24.668L8.388 1.988C8.508 1.652 8.7 1.376 8.964 1.16C9.228 0.919998 9.576 0.799998 10.008 0.799998H15.84C16.272 0.799998 16.62 0.919998 16.884 1.16C17.148 1.376 17.34 1.652 17.46 1.988L25.308 24.668ZM15.84 16.532L12.924 7.892L10.008 16.532H15.84ZM45.9998 20.24C46.2638 20.24 46.4918 20.336 46.6838 20.528C46.8758 20.72 46.9718 20.948 46.9718 21.212V25.028C46.9718 25.292 46.8758 25.52 46.6838 25.712C46.4918 25.904 46.2638 26 45.9998 26H29.3318C29.0678 26 28.8398 25.904 28.6478 25.712C28.4558 25.52 28.3598 25.292 28.3598 25.028V1.772C28.3598 1.508 28.4558 1.28 28.6478 1.088C28.8398 0.895998 29.0678 0.799998 29.3318 0.799998H34.0478C34.3118 0.799998 34.5398 0.895998 34.7318 1.088C34.9238 1.28 35.0198 1.508 35.0198 1.772V20.24H45.9998ZM51.0233 26C50.7593 26 50.5313 25.904 50.3393 25.712C50.1473 25.52 50.0513 25.292 50.0513 25.028V1.772C50.0513 1.508 50.1473 1.28 50.3393 1.088C50.5313 0.895998 50.7593 0.799998 51.0233 0.799998H62.6153C64.6553 0.799998 66.3113 1.16 67.5833 1.88C68.8553 2.6 69.7673 3.524 70.3193 4.652C70.8953 5.756 71.1833 6.968 71.1833 8.288C71.1833 9.488 70.9673 10.46 70.5353 11.204C70.1273 11.924 69.6713 12.476 69.1673 12.86C70.0793 13.484 70.7273 14.228 71.1113 15.092C71.4953 15.932 71.6873 16.964 71.6873 18.188C71.6873 20.42 71.0153 22.28 69.6713 23.768C68.3273 25.256 66.2273 26 63.3713 26H51.0233ZM56.7113 6.38V10.484H62.2913C63.0113 10.484 63.5513 10.304 63.9113 9.944C64.2953 9.584 64.4873 9.08 64.4873 8.432C64.4873 7.784 64.2953 7.28 63.9113 6.92C63.5513 6.56 63.0113 6.38 62.2913 6.38H56.7113ZM62.6513 20.42C63.3713 20.42 63.9473 20.216 64.3793 19.808C64.8113 19.4 65.0273 18.872 65.0273 18.224C65.0273 17.576 64.8113 17.048 64.3793 16.64C63.9473 16.232 63.3713 16.028 62.6513 16.028H56.7113V20.42H62.6513ZM82.3402 16.208H92.6362C92.9002 16.208 93.1282 16.112 93.3202 15.92C93.5122 15.728 93.6082 15.5 93.6082 15.236V11.42C93.6082 11.156 93.5122 10.928 93.3202 10.736C93.1282 10.544 92.9002 10.448 92.6362 10.448H82.3402V6.56H93.4282C93.6922 6.56 93.9202 6.464 94.1122 6.272C94.3042 6.08 94.4002 5.852 94.4002 5.588V1.772C94.4002 1.508 94.3042 1.28 94.1122 1.088C93.9202 0.895998 93.6922 0.799998 93.4282 0.799998H76.6522C76.3882 0.799998 76.1602 0.895998 75.9682 1.088C75.7762 1.28 75.6802 1.508 75.6802 1.772V25.028C75.6802 25.292 75.7762 25.52 75.9682 25.712C76.1602 25.904 76.3882 26 76.6522 26H93.7162C93.9802 26 94.2082 25.904 94.4002 25.712C94.5922 25.52 94.6882 25.292 94.6882 25.028V21.212C94.6882 20.948 94.5922 20.72 94.4002 20.528C94.2082 20.336 93.9802 20.24 93.7162 20.24H82.3402V16.208ZM109.541 0.799998C112.757 0.799998 115.253 1.496 117.029 2.888C118.805 4.256 119.693 6.308 119.693 9.044C119.693 12.524 118.265 14.924 115.409 16.244L119.873 24.812C119.945 24.956 119.981 25.088 119.981 25.208C119.981 25.424 119.897 25.616 119.729 25.784C119.585 25.928 119.405 26 119.189 26H114.293C113.861 26 113.537 25.916 113.321 25.748C113.105 25.556 112.925 25.316 112.781 25.028L108.785 17.324H105.473V25.028C105.473 25.292 105.377 25.52 105.185 25.712C104.993 25.904 104.765 26 104.501 26H99.785C99.521 26 99.293 25.904 99.101 25.712C98.909 25.52 98.813 25.292 98.813 25.028V1.772C98.813 1.508 98.909 1.28 99.101 1.088C99.293 0.895998 99.521 0.799998 99.785 0.799998H109.541ZM109.541 11.708C111.869 11.708 113.033 10.82 113.033 9.044C113.033 7.268 111.869 6.38 109.541 6.38H105.473V11.708H109.541ZM129.218 16.424C129.314 17.672 129.71 18.68 130.406 19.448C131.126 20.216 132.242 20.6 133.754 20.6C135.194 20.6 136.238 20.324 136.886 19.772C137.534 19.22 137.99 18.548 138.254 17.756C138.398 17.348 138.542 17.072 138.686 16.928C138.83 16.784 139.094 16.712 139.478 16.712H144.194C144.41 16.712 144.59 16.796 144.734 16.964C144.902 17.108 144.986 17.288 144.986 17.504C144.962 19.112 144.446 20.6 143.438 21.968C142.454 23.312 141.11 24.38 139.406 25.172C137.702 25.964 135.818 26.36 133.754 26.36C131.522 26.36 129.578 25.928 127.922 25.064C126.266 24.176 124.982 23 124.07 21.536C123.158 20.048 122.654 18.404 122.558 16.604C122.51 15.452 122.486 14.504 122.486 13.76C122.486 12.872 122.51 11.684 122.558 10.196C122.63 8.396 123.122 6.764 124.034 5.3C124.946 3.812 126.23 2.636 127.886 1.772C129.566 0.883999 131.522 0.439999 133.754 0.439999C135.818 0.439999 137.702 0.835999 139.406 1.628C141.11 2.42 142.454 3.5 143.438 4.868C144.446 6.212 144.962 7.688 144.986 9.296C144.986 9.512 144.902 9.704 144.734 9.872C144.59 10.016 144.41 10.088 144.194 10.088H139.478C139.094 10.088 138.83 10.016 138.686 9.872C138.542 9.728 138.398 9.452 138.254 9.044C137.99 8.252 137.534 7.58 136.886 7.028C136.238 6.476 135.194 6.2 133.754 6.2C132.242 6.2 131.126 6.584 130.406 7.352C129.71 8.12 129.314 9.128 129.218 10.376C129.17 11.192 129.146 12.2 129.146 13.4C129.146 14.552 129.17 15.56 129.218 16.424ZM171.031 24.668C171.127 24.908 171.175 25.088 171.175 25.208C171.175 25.424 171.091 25.616 170.923 25.784C170.779 25.928 170.599 26 170.383 26H165.847C165.439 26 165.115 25.916 164.875 25.748C164.659 25.556 164.515 25.34 164.443 25.1L163.435 22.112H153.859L152.851 25.1C152.779 25.34 152.623 25.556 152.383 25.748C152.167 25.916 151.855 26 151.447 26H146.911C146.695 26 146.503 25.928 146.335 25.784C146.191 25.616 146.119 25.424 146.119 25.208C146.119 25.088 146.167 24.908 146.263 24.668L154.111 1.988C154.231 1.652 154.423 1.376 154.687 1.16C154.951 0.919998 155.299 0.799998 155.731 0.799998H161.563C161.995 0.799998 162.343 0.919998 162.607 1.16C162.871 1.376 163.063 1.652 163.183 1.988L171.031 24.668ZM161.563 16.532L158.647 7.892L155.731 16.532H161.563ZM194.027 7.532C194.027 7.748 193.943 7.94 193.775 8.108C193.631 8.252 193.463 8.324 193.271 8.324H188.555C188.219 8.324 187.955 8.288 187.763 8.216C187.571 8.12 187.355 7.964 187.115 7.748C187.067 7.7 186.911 7.544 186.647 7.28C186.383 6.992 185.963 6.74 185.387 6.524C184.835 6.308 184.187 6.2 183.443 6.2C182.411 6.2 181.559 6.344 180.887 6.632C180.239 6.896 179.915 7.364 179.915 8.036C179.915 8.516 180.119 8.9 180.527 9.188C180.935 9.452 181.559 9.692 182.399 9.908C183.263 10.124 184.751 10.448 186.863 10.88C189.575 11.432 191.567 12.296 192.839 13.472C194.111 14.648 194.747 16.328 194.747 18.512C194.747 20.096 194.267 21.488 193.307 22.688C192.371 23.864 191.051 24.776 189.347 25.424C187.667 26.048 185.759 26.36 183.623 26.36C181.559 26.36 179.687 26 178.007 25.28C176.327 24.56 175.007 23.624 174.047 22.472C173.087 21.32 172.583 20.132 172.535 18.908C172.535 18.692 172.607 18.512 172.75 18.368C172.919 18.2 173.099 18.116 173.291 18.116H178.007C178.535 18.116 178.991 18.284 179.375 18.62C179.447 18.692 179.639 18.908 179.951 19.268C180.263 19.604 180.731 19.916 181.355 20.204C182.003 20.468 182.759 20.6 183.623 20.6C186.599 20.6 188.087 19.964 188.087 18.692C188.087 18.284 187.871 17.948 187.439 17.684C187.031 17.396 186.443 17.156 185.675 16.964C184.907 16.772 183.683 16.496 182.003 16.136L180.383 15.812C177.935 15.284 176.135 14.408 174.983 13.184C173.831 11.936 173.255 10.28 173.255 8.216C173.255 6.824 173.675 5.54 174.515 4.364C175.355 3.164 176.543 2.216 178.079 1.52C179.639 0.799999 181.427 0.439999 183.443 0.439999C185.387 0.439999 187.163 0.811999 188.771 1.556C190.379 2.276 191.639 3.188 192.551 4.292C193.487 5.396 193.979 6.476 194.027 7.532ZM227.857 10.844C227.905 12.188 227.929 13.052 227.929 13.436C227.929 13.82 227.905 14.66 227.857 15.956C227.785 17.924 227.269 19.664 226.309 21.176C225.373 22.688 224.077 23.876 222.421 24.74C220.765 25.58 218.845 26 216.661 26H206.941C206.677 26 206.449 25.904 206.257 25.712C206.065 25.52 205.969 25.292 205.969 25.028V1.772C205.969 1.508 206.065 1.28 206.257 1.088C206.449 0.895998 206.677 0.799998 206.941 0.799998H216.481C218.665 0.799998 220.597 1.232 222.277 2.096C223.981 2.936 225.313 4.124 226.273 5.66C227.257 7.172 227.785 8.9 227.857 10.844ZM212.629 6.56V20.24H216.481C219.505 20.24 221.077 18.86 221.197 16.1C221.245 14.708 221.269 13.796 221.269 13.364C221.269 12.884 221.245 11.996 221.197 10.7C221.125 9.332 220.669 8.3 219.829 7.604C219.013 6.908 217.837 6.56 216.301 6.56H212.629ZM238.645 16.208H248.941C249.205 16.208 249.433 16.112 249.625 15.92C249.817 15.728 249.913 15.5 249.913 15.236V11.42C249.913 11.156 249.817 10.928 249.625 10.736C249.433 10.544 249.205 10.448 248.941 10.448H238.645V6.56H249.733C249.997 6.56 250.225 6.464 250.417 6.272C250.609 6.08 250.705 5.852 250.705 5.588V1.772C250.705 1.508 250.609 1.28 250.417 1.088C250.225 0.895998 249.997 0.799998 249.733 0.799998H232.957C232.693 0.799998 232.465 0.895998 232.273 1.088C232.081 1.28 231.985 1.508 231.985 1.772V25.028C231.985 25.292 232.081 25.52 232.273 25.712C232.465 25.904 232.693 26 232.957 26H250.021C250.285 26 250.513 25.904 250.705 25.712C250.897 25.52 250.993 25.292 250.993 25.028V21.212C250.993 20.948 250.897 20.72 250.705 20.528C250.513 20.336 250.285 20.24 250.021 20.24H238.645V16.208ZM271.879 20.24C272.143 20.24 272.371 20.336 272.563 20.528C272.755 20.72 272.851 20.948 272.851 21.212V25.028C272.851 25.292 272.755 25.52 272.563 25.712C272.371 25.904 272.143 26 271.879 26H255.211C254.947 26 254.719 25.904 254.527 25.712C254.335 25.52 254.239 25.292 254.239 25.028V1.772C254.239 1.508 254.335 1.28 254.527 1.088C254.719 0.895998 254.947 0.799998 255.211 0.799998H259.927C260.191 0.799998 260.419 0.895998 260.611 1.088C260.803 1.28 260.899 1.508 260.899 1.772V20.24H271.879ZM290.219 13.112V25.028C290.219 25.292 290.123 25.52 289.931 25.712C289.739 25.904 289.511 26 289.247 26H284.531C284.267 26 284.039 25.904 283.847 25.712C283.655 25.52 283.559 25.292 283.559 25.028V1.772C283.559 1.508 283.655 1.28 283.847 1.088C284.039 0.895998 284.267 0.799998 284.531 0.799998H288.707C289.379 0.799998 289.895 1.124 290.255 1.772L296.087 11.744L301.919 1.772C302.279 1.124 302.795 0.799998 303.467 0.799998H307.643C307.907 0.799998 308.135 0.895998 308.327 1.088C308.519 1.28 308.615 1.508 308.615 1.772V25.028C308.615 25.292 308.519 25.52 308.327 25.712C308.135 25.904 307.907 26 307.643 26H302.927C302.663 26 302.435 25.904 302.243 25.712C302.051 25.52 301.955 25.292 301.955 25.028V13.112L298.571 19.052C298.403 19.316 298.211 19.532 297.995 19.7C297.803 19.868 297.551 19.952 297.239 19.952H294.935C294.623 19.952 294.359 19.868 294.143 19.7C293.951 19.532 293.771 19.316 293.603 19.052L290.219 13.112ZM336.441 24.668C336.537 24.908 336.585 25.088 336.585 25.208C336.585 25.424 336.501 25.616 336.333 25.784C336.189 25.928 336.009 26 335.793 26H331.257C330.849 26 330.525 25.916 330.285 25.748C330.069 25.556 329.925 25.34 329.853 25.1L328.845 22.112H319.269L318.261 25.1C318.189 25.34 318.033 25.556 317.793 25.748C317.577 25.916 317.265 26 316.857 26H312.321C312.105 26 311.913 25.928 311.745 25.784C311.601 25.616 311.529 25.424 311.529 25.208C311.529 25.088 311.577 24.908 311.673 24.668L319.521 1.988C319.641 1.652 319.833 1.376 320.097 1.16C320.361 0.919998 320.709 0.799998 321.141 0.799998H326.973C327.405 0.799998 327.753 0.919998 328.017 1.16C328.281 1.376 328.473 1.652 328.593 1.988L336.441 24.668ZM326.973 16.532L324.057 7.892L321.141 16.532H326.973ZM350.221 0.799998C353.437 0.799998 355.933 1.496 357.709 2.888C359.485 4.256 360.373 6.308 360.373 9.044C360.373 12.524 358.945 14.924 356.089 16.244L360.553 24.812C360.625 24.956 360.661 25.088 360.661 25.208C360.661 25.424 360.577 25.616 360.409 25.784C360.265 25.928 360.085 26 359.869 26H354.973C354.541 26 354.217 25.916 354.001 25.748C353.785 25.556 353.605 25.316 353.461 25.028L349.465 17.324H346.153V25.028C346.153 25.292 346.057 25.52 345.865 25.712C345.673 25.904 345.445 26 345.181 26H340.465C340.201 26 339.973 25.904 339.781 25.712C339.589 25.52 339.493 25.292 339.493 25.028V1.772C339.493 1.508 339.589 1.28 339.781 1.088C339.973 0.895998 340.201 0.799998 340.465 0.799998H350.221ZM350.221 11.708C352.549 11.708 353.713 10.82 353.713 9.044C353.713 7.268 352.549 6.38 350.221 6.38H346.153V11.708H350.221ZM392.493 0.799998C392.757 0.799998 392.985 0.895998 393.177 1.088C393.369 1.28 393.465 1.508 393.465 1.772V25.028C393.465 25.292 393.369 25.52 393.177 25.712C392.985 25.904 392.757 26 392.493 26H387.777C387.513 26 387.285 25.904 387.093 25.712C386.901 25.52 386.805 25.292 386.805 25.028V16.208H378.813V25.028C378.813 25.292 378.717 25.52 378.525 25.712C378.333 25.904 378.105 26 377.841 26H373.125C372.861 26 372.633 25.916 372.441 25.748C372.249 25.556 372.153 25.316 372.153 25.028V1.772C372.153 1.508 372.249 1.28 372.441 1.088C372.633 0.895998 372.861 0.799998 373.125 0.799998H377.841C378.105 0.799998 378.333 0.895998 378.525 1.088C378.717 1.28 378.813 1.508 378.813 1.772V10.448H386.805V1.772C386.805 1.508 386.901 1.28 387.093 1.088C387.285 0.895998 387.513 0.799998 387.777 0.799998H392.493ZM416.16 20.24C416.424 20.24 416.652 20.336 416.844 20.528C417.036 20.72 417.132 20.948 417.132 21.212V25.028C417.132 25.292 417.036 25.52 416.844 25.712C416.652 25.904 416.424 26 416.16 26H399.492C399.228 26 399 25.904 398.808 25.712C398.616 25.52 398.52 25.292 398.52 25.028V1.772C398.52 1.508 398.616 1.28 398.808 1.088C399 0.895998 399.228 0.799998 399.492 0.799998H404.208C404.472 0.799998 404.7 0.895998 404.892 1.088C405.084 1.28 405.18 1.508 405.18 1.772V20.24H416.16Z" fill="white"/>
</svg>
